# AST/ASF file generated using VICON BodyLanguage
# -----------------------------------------------
:version 1.10
:name VICON
:units
  mass 1.0
  length 0.45
  angle deg
:documentation
   .ast/.asf automatically generated from VICON data using
   VICON BodyBuilder and BodyLanguage model FoxedUp or BRILLIANT.MOD
:root
   order TX TY TZ RX RY RZ
   axis XYZ
   position 0 0 0  
   orientation 0 0 0 
:bonedata
  begin
     id 1 
     name lhipjoint
     direction 0.662698 -0.695252 0.27831 
     length 2.53073 
     axis 0 0 0  XYZ
  end
  begin
     id 2 
     name lfemur
     direction 0.34202 -0.939693 0  
     length 7.16147  
     axis 0 0 20  XYZ
    dof rx ry rz
    limits (-160.0 20.0)
           (-70.0 70.0)
           (-60.0 70.0)
  end
  begin
     id 3 
     name ltibia
     direction 0.34202 -0.939693 0   
     length 7.63967   
     axis 0 0 20   XYZ
    dof rx
    limits (-10.0 170.0)
  end
  begin
     id 4 
     name lfoot
     direction 0.0938457 -0.257721 0.961651   
     length 1.89793   
     axis -90 7.62852e-016 20   XYZ
    dof rx rz
    limits (-45.0 90.0)
           (-70.0 20.0)
  end
  begin
     id 5 
     name ltoes
     direction -0.00116841 -0.0030592 0.999995   
     length 0.955649   
     axis -90 7.62852e-016 20   XYZ
    dof rx
    limits (-90.0 20.0)
  end
  begin
     id 6 
     name rhipjoint
     direction -0.649445 -0.705948 0.282592   
     length 2.49238  
     axis 0 0 0  XYZ 
  end
  begin
     id 7 
     name rfemur
     direction -0.34202 -0.939693 0   
     length 6.90728   
     axis 0 0 -20   XYZ
    dof rx ry rz
    limits (-160.0 20.0)
           (-70.0 70.0)
           (-70.0 60.0)
  end
  begin
     id 8 
     name rtibia
     direction -0.34202 -0.939693 0   
     length 7.72868   
     axis 0 0 -20   XYZ
    dof rx
    limits (-10.0 170.0)
 end
 begin
     id 9 
     name rfoot
     direction -0.0920068 -0.252865 0.963117   
     length 1.97476  
     axis -90 -7.62852e-016 -20   XYZ
    dof rx rz
    limits (-45.0 90.0)
           (-20.0 70.0)
  end
  begin
     id 10 
     name rtoes
     direction 0.000391322 0.00230649 0.999997   
     length 0.992641   
     axis -90 -7.62852e-016 -20   XYZ
    dof rx
    limits (-90.0 20.0)
  end
  begin
     id 11 
     name lowerback
     direction -0.00875327 0.998321 -0.0572635   
     length 2.20024   
     axis 0 0 0   XYZ
    dof rx ry rz
    limits (-20.0 45.0)
           (-30.0 30.0)
           (-30.0 30.0)
  end
  begin
     id 12 
     name upperback
     direction 0.00753931 0.999972 -0.000360425   
     length 2.20538   
     axis 0 0 0   XYZ
    dof rx ry rz
    limits (-20.0 45.0)
           (-30.0 30.0)
           (-30.0 30.0)
  end
  begin
     id 13 
     name thorax
     direction 0.0117767 0.999601 0.0256663   
     length 2.21508   
     axis 0 0 0   XYZ
    dof rx ry rz
    limits (-20.0 45.0)
           (-30.0 30.0)
           (-30.0 30.0)
  end
  begin
     id 14 
     name lowerneck
     direction 0.060228 0.994909 0.0807986   
     length 1.7607   
     axis 0 0 0   XYZ
    dof rx ry rz
    limits (-20.0 45.0)
           (-30.0 30.0)
           (-30.0 30.0)
  end
  begin
     id 15 
     name upperneck
     direction -0.0563647 0.959594 -0.275685   
     length 1.75612   
     axis 0 0 0   XYZ
    dof rx ry rz
    limits (-20.0 45.0)
           (-30.0 30.0)
           (-30.0 30.0)
  end
  begin
     id 16
     name head
     direction -0.0161544 0.99458 -0.102714  
     length 1.79288  
     axis 0 0 0   XYZ
    dof rx ry rz
    limits (-20.0 45.0)
           (-30.0 30.0)
           (-30.0 30.0)
  end
  begin
     id 17 
     name lclavicle
     direction 0.93913 0.332189 -0.087669  
     length 3.52087  
     axis 0 0 0   XYZ
    dof ry rz
    limits (-20.0 10.0)
           (0.0 20.0)
  end
  begin
     id 18 
     name lhumerus
     direction 1 -4.48974e-011 -2.70836e-027   
     length 5.35289   
     axis -180 -30 -90   XYZ
    dof rx ry rz
    limits (-60.0 90.0)
           (-90.0 90.0)
           (-90.0 90.0)
  end
  begin
     id 19
     name lradius
     direction 1 -4.48961e-011 -9.76021e-027   
     length 3.27727   
     axis -180 -30 -90   XYZ
    dof rx
    limits (-10.0 170.0)
  end
  begin
     id 20
     name lwrist
     direction 1 -4.49103e-011 -2.23668e-026   
     length 1.63864   
     axis 1.44924e-014 90 90   XYZ
    dof ry
    limits (-180.0 0.0)
 end
  begin
     id 21 
     name lhand
     direction 1 3.0697e-005 0.000161777   
     length 0.54443   
     axis 2.85318e-014 90 90   XYZ
    dof rx rz
    limits (-90.0 90.0)
           (-45.0 45.0)
  end
  begin
     id 22 
     name lfingers
     direction 1 -4.49027e-011 -8.9447e-026   
     length 0.438912   
     axis 5.70628e-014 90 90   XYZ
    dof rx
    limits (0.0 90.0)
  end
  begin
     id 23
     name lthumb
     direction 0.707058 2.6516e-005 0.707156   
     length 0.630274   
     axis -90 45 -3.53137e-014   XYZ
    dof rx rz
    limits (-45.0 45.0)
           (-45.0 45.0)
  end
  begin
     id 24 
     name rclavicle
     direction -0.95274 0.284984 -0.105215   
     length 3.43401  
     axis 0 0 0   XYZ 
    dof ry rz
    limits (-10.0 20.0)
           (-20.0 0.0)
  end
  begin
     id 25 
     name rhumerus
     direction -0.999999 -0.000575019 -0.00106829  
     length 5.52077   
     axis -180 30 90   XYZ
    dof rx ry rz
    limits (-90.0 60.0)
           (-90.0 90.0)
           (-90.0 90.0)
  end
  begin
     id 26 
     name rradius
     direction -1 -4.4879e-011 -6.35415e-027   
     length 3.32364   
     axis -180 30 90   XYZ
    dof rx
    limits (-10.0 170.0)
  end
  begin
     id 27 
     name rwrist
     direction -1 -4.49048e-011 -9.98542e-027   
     length 1.66182   
     axis 6.32482e-015 -90 -90   XYZ
    dof ry
    limits (-180.0 0.0)
  end
  begin
     id 28
     name rhand
     direction -1 -4.48978e-011 -1.99771e-026   
     length 0.732235   
     axis 1.27479e-014 -90 -90   XYZ
    dof rx rz
    limits (-90.0 90.0)
           (-45.0 45.0)
  end
  begin
     id 29
     name rfingers
     direction -1 -4.49144e-011 -3.99245e-026   
     length 0.590347   
     axis 2.5496e-014 -90 -90   XYZ
    dof rx
    limits (0.0 90.0)
  end
  begin
     id 30
     name rthumb
     direction -0.707107 -6.35121e-011 0.707107   
     length 0.847624   
     axis -90 -45 -2.82974e-014   XYZ
    dof rx rz
    limits (-45.0 45.0)
           (-45.0 45.0)
  end
:hierarchy
  begin
    root lhipjoint rhipjoint lowerback
    lhipjoint lfemur
    lfemur ltibia
    ltibia lfoot
    lfoot ltoes
    rhipjoint rfemur
    rfemur rtibia
    rtibia rfoot
    rfoot rtoes
    lowerback upperback
    upperback thorax
    thorax lowerneck lclavicle rclavicle
    lowerneck upperneck
    upperneck head
    lclavicle lhumerus
    lhumerus lradius
    lradius lwrist
    lwrist lhand lthumb
    lhand lfingers
    rclavicle rhumerus
    rhumerus rradius
    rradius rwrist
    rwrist rhand rthumb
    rhand rfingers
  end

#!OML:ASF G:\Work\Work\Patient Classification 1\Elijah\terrain1\Elijah.ASF
:FULLY-SPECIFIED
:DEGREES
2362
root 10.9546 21.1181 -22.9891 331.574 -79.9014 -324.334
lowerback 12.716 -0.442148 -3.36196
upperback 4.5332 -1.10168 1.86302
thorax -2.26728 -0.651557 4.00674
lowerneck -4.12415 15.2093 13.5351
upperneck 14.958 23.7095 -24.5904
head 10.2777 10.3785 -7.64529
rclavicle -1.35174e-014 2.06736e-014
rhumerus -31.7677 4.57686 -80.6511
rradius 37.6844
rwrist -4.56355
rhand -14.7235 22.7862
rfingers 7.12502
rthumb 11.4314 -6.88219
lclavicle -1.35174e-014 2.06736e-014
lhumerus -42.5491 -10.3248 87.35
lradius 60.0719
lwrist 11.7076
lhand 2.41151 14.4914
lfingers 7.12502
lthumb 27.8981 42.4393
rfemur -54.368 -2.89824 12.9653
rtibia 63.8741
rfoot -16.8039 -6.74346
rtoes -7.15007
lfemur -1.9567 -6.98731 -24.3717
ltibia 33.0375
lfoot 10.7366 -24.7416
ltoes -47.9309
2363
root 10.8191 21.1645 -23.0107 330.96 -79.8175 -323.405
lowerback 12.5905 -0.530767 -3.37846
upperback 4.44515 -1.21383 1.80421
thorax -2.28195 -0.702765 3.96813
lowerneck -4.12389 15.3276 13.7827
upperneck 15.046 23.9015 -24.6684
head 10.4003 10.471 -7.67212
rclavicle -3.22031e-014 4.77083e-015
rhumerus -31.6972 4.67099 -80.883
rradius 38.1256
rwrist -4.79851
rhand -13.9562 23.1481
rfingers 7.12502
rthumb 12.1713 -6.47777
lclavicle -3.22031e-014 4.77083e-015
lhumerus -43.0184 -10.8562 87.4777
lradius 59.2863
lwrist 12.4197
lhand -19.6044 28.4148
lfingers 7.12502
lthumb 6.72171 58.2881
rfemur -54.0524 -3.04584 13.0237
rtibia 63.7326
rfoot -16.4447 -7.37723
rtoes -12.9293
lfemur -2.84247 -5.49517 -23.9671
ltibia 34.0332
lfoot 11.9427 -26.2488
ltoes -46.2368
2364
root 10.6845 21.2042 -23.0215 330.592 -79.7933 -322.745
lowerback 12.36 -0.623325 -3.5881
upperback 4.41047 -1.34432 2.08167
thorax -2.1676 -0.772187 4.39152
lowerneck -4.03001 15.448 13.4075
upperneck 14.9806 24.1549 -24.9587
head 10.4165 10.5546 -7.67637
rclavicle 1.11319e-014 5.56597e-015
rhumerus -31.5455 5.52236 -80.6684
rradius 38.7016
rwrist -5.54617
rhand -13.3134 23.1004
rfingers 7.12502
rthumb 12.7911 -6.48777
lclavicle 1.11319e-014 5.56597e-015
lhumerus -43.3509 -11.0615 88.1468
lradius 58.4389
lwrist 13.362
lhand -26.51 31.8751
lfingers 7.12502
lthumb 0.0532075 61.8548
rfemur -53.7582 -3.36938 13.2905
rtibia 63.5695
rfoot -17.0898 -7.76872
rtoes -12.4598
lfemur -3.30293 -8.79671 -24.8809
ltibia 35.2541
lfoot 12.3602 -23.3863
ltoes -43.4655
2365
root 10.5526 21.2515 -23.04 329.299 -79.7378 -321.248
lowerback 12.235 -0.685102 -3.61993
upperback 4.42112 -1.42685 2.02446
thorax -2.08091 -0.814982 4.35658
lowerneck -4.0482 15.6271 13.7095
upperneck 15.0321 24.436 -25.0682
head 10.5652 10.6911 -7.69875
rclavicle -1.27222e-014 3.97569e-015
rhumerus -31.3544 5.73468 -80.6536
rradius 39.1443
rwrist -5.91899
rhand -13.3221 22.8567
rfingers 7.12502
rthumb 12.7827 -6.73194
lclavicle -1.27222e-014 3.97569e-015
lhumerus -43.5501 -11.3223 88.3916
lradius 57.3697
lwrist 14.4335
lhand -23.6756 29.8506
lfingers 7.12502
lthumb 2.79069 59.8121
rfemur -53.3318 -3.10963 12.8156
rtibia 63.5712
rfoot -17.8379 -6.49621
rtoes -8.76111
lfemur -3.90382 -9.45312 -25.3915
ltibia 36.6448
lfoot 12.8174 -22.0966
ltoes -48.0181
2366
root 10.4275 21.2739 -23.0642 327.809 -79.6366 -319.648
lowerback 12.294 -0.581262 -3.82371
upperback 4.39593 -1.31651 1.92976
thorax -2.14759 -0.757774 4.36024
lowerneck -4.07046 15.6026 13.9855
upperneck 15.1889 24.4276 -25.1185
head 10.6726 10.6897 -7.76483
rclavicle 5.56597e-015 -3.73715e-014
rhumerus -31.3457 5.61343 -80.592
rradius 39.6264
rwrist -6.21356
rhand -13.7839 22.555
rfingers 7.12502
rthumb 12.3375 -7.06104
lclavicle 5.56597e-015 -3.73715e-014
lhumerus -43.6157 -11.3596 88.5719
lradius 55.9536
lwrist 15.1408
lhand -21.3312 28.7558
lfingers 7.12502
lthumb 5.05453 58.6755
rfemur -52.9335 -3.2715 13.0025
rtibia 63.4393
rfoot -18.1288 -7.66104
rtoes -11.1835
lfemur -4.77953 -8.15911 -25.4411
ltibia 38.3982
lfoot 13.0779 -22.2991
ltoes -49.6649
2367
root 10.3016 21.3191 -23.0783 327.994 -79.7033 -319.754
lowerback 12.3018 -0.556998 -3.47371
upperback 4.37548 -1.2461 1.80944
thorax -2.19257 -0.717812 4.02566
lowerneck -4.03293 15.5876 14.3793
upperneck 15.2931 24.4213 -25.1949
head 10.7715 10.7033 -7.86062
rclavicle 1.86858e-014 2.38542e-015
rhumerus -31.4514 5.70032 -80.8314
rradius 40.2318
rwrist -6.75203
rhand -14.9123 22.2914
rfingers 7.12502
rthumb 11.2493 -7.38694
lclavicle 1.86858e-014 2.38542e-015
lhumerus -43.9952 -12.9007 88.9501
lradius 55.2805
lwrist 16.6018
lhand -30.0875 32.234
lfingers 7.12502
lthumb -3.40197 62.1866
rfemur -52.3197 -3.02225 12.9395
rtibia 63.2666
rfoot -18.8192 -6.93624
rtoes -9.00393
lfemur -5.63757 -8.27608 -25.52
ltibia 40.4502
lfoot 13.0577 -21.3946
ltoes -50.972
2368
root 10.1807 21.3492 -23.0808 329.533 -80.0283 -321.309
lowerback 12.2847 -0.646862 -2.74939
upperback 4.43569 -1.28194 1.87172
thorax -2.13386 -0.735848 3.68312
lowerneck -3.99524 15.6966 14.6381
upperneck 15.2816 24.6169 -25.4284
head 10.8871 10.7968 -7.94556
rclavicle 1.51076e-014 3.02153e-014
rhumerus -31.4144 5.90117 -81.0217
rradius 40.7762
rwrist -6.94707
rhand -16.0839 22.0348
rfingers 7.12502
rthumb 10.1192 -7.70188
lclavicle 1.51076e-014 3.02153e-014
lhumerus -44.0363 -12.7712 88.9085
lradius 54.151
lwrist 15.7548
lhand -26.4987 31.5911
lfingers 7.12502
lthumb 0.0640768 61.5709
rfemur -51.6632 -2.7837 13.3948
rtibia 63.0757
rfoot -19.1279 -7.06802
rtoes -10.5808
lfemur -6.71023 -6.38711 -24.7919
ltibia 42.7508
lfoot 12.9405 -21.8857
ltoes -52.0633
2369
root 10.0648 21.3968 -23.0718 336.792 -80.8942 -328.752
lowerback 12.3111 -0.774004 -0.637308
upperback 4.57537 -1.21184 2.09873
thorax -2.0505 -0.697111 2.71301
lowerneck -4.09758 15.7569 14.9304
upperneck 15.3163 24.726 -25.5918
head 11.0197 10.8438 -8.01923
rclavicle 0 3.97569e-015
rhumerus -31.3082 5.65659 -81.1851
rradius 41.2907
rwrist -6.83073
rhand -15.8751 21.8074
rfingers 7.12502
rthumb 10.3207 -7.91933
lclavicle 0 3.97569e-015
lhumerus -43.8728 -12.2797 88.7223
lradius 52.9222
lwrist 14.0813
lhand -23.2913 32.1212
lfingers 7.12502
lthumb 3.16182 62.0775
rfemur -50.7153 -2.49983 15.1231
rtibia 62.6284
rfoot -19.5042 -7.27119
rtoes -10.875
lfemur -7.56383 -7.59013 -23.8068
ltibia 45.3399
lfoot 12.644 -20.0046
ltoes -51.1493
2370
root 9.9588 21.4185 -23.0937 331.544 -80.3325 -323.251
lowerback 12.4412 -0.840192 -1.82685
upperback 4.44211 -1.43338 1.93902
thorax -2.22249 -0.806382 3.25547
lowerneck -3.88145 15.8847 15.0635
upperneck 15.2806 24.9663 -25.8444
head 11.091 10.9637 -8.09615
rclavicle 3.57812e-015 1.82882e-014
rhumerus -31.2762 6.28246 -81.1878
rradius 41.8389
rwrist -7.10245
rhand -14.6153 21.5354
rfingers 7.12502
rthumb 11.5358 -8.12718
lclavicle 3.57812e-015 1.82882e-014
lhumerus -44.036 -11.9152 88.7307
lradius 52.0664
lwrist 14.6168
lhand -30.7985 38.624
lfingers 7.12502
lthumb -4.08852 68.5645
rfemur -50.5542 -2.82087 14.1249
rtibia 62.5769
rfoot -19.7283 -7.14303
rtoes -10.9224
lfemur -8.92096 -7.61568 -25.0085
ltibia 47.9273
lfoot 12.4029 -19.722
ltoes -51.0204
2371
root 9.85184 21.4448 -23.0843 336.271 -80.7342 -327.939
lowerback 12.3721 -1.02345 -0.56656
upperback 4.45615 -1.52603 2.11751
thorax -2.193 -0.848773 2.73944
lowerneck -3.77528 15.9854 15.0826
upperneck 15.2202 25.1367 -25.9814
head 11.1195 11.0459 -8.11716
rclavicle 1.66979e-014 -2.06736e-014
rhumerus -31.1242 6.58584 -81.239
rradius 42.2841
rwrist -7.27021
rhand -13.9834 21.3436
rfingers 7.12502
rthumb 12.1451 -8.28385
lclavicle 1.66979e-014 -2.06736e-014
lhumerus -44.1845 -12.1772 88.8391
lradius 51.1084
lwrist 14.345
lhand -25.3283 33.0056
lfingers 7.12502
lthumb 1.19452 62.982
rfemur -49.9797 -2.80861 15.1394
rtibia 62.2999
rfoot -20.0951 -7.15106
rtoes -10.7906
lfemur -10.5339 -4.64403 -23.3457
ltibia 50.7267
lfoot 11.8515 -22.0176
ltoes -50.7988
2372
root 9.74171 21.4653 -23.0987 334.096 -80.7327 -325.71
lowerback 12.3559 -0.923719 -0.725876
upperback 4.5196 -1.4203 1.9076
thorax -2.12531 -0.796912 2.5941
lowerneck -3.86195 16.0054 15.2927
upperneck 15.2698 25.1686 -26.019
head 11.2016 11.0617 -8.14977
rclavicle 3.97569e-015 -2.46493e-014
rhumerus -31.0625 6.31584 -81.4179
rradius 42.7442
rwrist -7.28022
rhand -14.4357 21.689
rfingers 7.12502
rthumb 11.709 -7.96373
lclavicle 3.97569e-015 -2.46493e-014
lhumerus -44.4657 -13.0258 89.4242
lradius 50.6968
lwrist 16.3316
lhand -21.004 29.1291
lfingers 7.12502
lthumb 5.37051 59.0411
rfemur -49.5402 -2.67041 14.902
rtibia 62.2338
rfoot -20.4491 -7.21475
rtoes -10.9489
lfemur -11.6576 -5.11048 -23.9807
ltibia 53.465
lfoot 11.3264 -21.216
ltoes -51.7859
